<svg xmlns="http://www.w3.org/2000/svg" width="900" height="420" viewBox="0 0 900 420">
  <rect width="900" height="420" fill="#faf9f6"/>
  <line x1="70" y1="30" x2="70" y2="185" stroke="#d6d2c8" stroke-width="1"/>
  <line x1="70" y1="185" x2="860" y2="185" stroke="#d6d2c8" stroke-width="1"/>
  <line x1="70" y1="108" x2="860" y2="108" stroke="#d6d2c8" stroke-width="1" stroke-dasharray="4,4"/>
  <line x1="70" y1="55"  x2="860" y2="55"  stroke="#bfbab0" stroke-width="1" stroke-dasharray="3,5"/>
  <line x1="70" y1="162" x2="860" y2="162" stroke="#bfbab0" stroke-width="1" stroke-dasharray="3,5"/>
  <text x="866" y="58"  font-family="Georgia,serif" font-size="10" fill="#bfbab0" dominant-baseline="middle">x+</text>
  <text x="866" y="165" font-family="Georgia,serif" font-size="10" fill="#bfbab0" dominant-baseline="middle">x-</text>
  <text x="20" y="108" font-family="Georgia,serif" font-size="13" fill="#5c5c5c" text-anchor="middle" transform="rotate(-90,20,108)" font-style="italic">x(t)</text>
  <text x="62" y="58"  font-family="Georgia,serif" font-size="10" fill="#5c5c5c" text-anchor="end" dominant-baseline="middle">+1</text>
  <text x="62" y="108" font-family="Georgia,serif" font-size="10" fill="#5c5c5c" text-anchor="end" dominant-baseline="middle">0</text>
  <text x="62" y="165" font-family="Georgia,serif" font-size="10" fill="#5c5c5c" text-anchor="end" dominant-baseline="middle">-1</text>
  <polyline fill="none" stroke="#1e3a5f" stroke-width="1.6" points="70,62 84,50 98,55 112,68 126,58 140,47 154,52 168,162 182,170 196,158 210,165 224,155 238,170 252,160 266,52 280,44 294,58 308,50 322,62 336,55 350,165 364,158 378,168 392,158 406,170 420,60 434,50 448,57 462,160 476,168 490,155 504,165 518,50 532,44 546,55 560,165 574,158 588,170 602,160 616,52 630,44 644,55 658,50 672,60 686,160 700,170 714,158 728,165 742,52 756,48 770,58 784,165 798,158 812,168 826,158 840,50 854,44"/>
  <line x1="70" y1="225" x2="70" y2="385" stroke="#d6d2c8" stroke-width="1"/>
  <line x1="70" y1="385" x2="860" y2="385" stroke="#d6d2c8" stroke-width="1"/>
  <line x1="70" y1="305" x2="860" y2="305" stroke="#d6d2c8" stroke-width="1" stroke-dasharray="4,4"/>
  <text x="20" y="305" font-family="Georgia,serif" font-size="13" fill="#5c5c5c" text-anchor="middle" transform="rotate(-90,20,305)" font-style="italic">dx/dt</text>
  <text x="62" y="245" font-family="Georgia,serif" font-size="10" fill="#5c5c5c" text-anchor="end" dominant-baseline="middle">+2</text>
  <text x="62" y="305" font-family="Georgia,serif" font-size="10" fill="#5c5c5c" text-anchor="end" dominant-baseline="middle">0</text>
  <text x="62" y="368" font-family="Georgia,serif" font-size="10" fill="#5c5c5c" text-anchor="end" dominant-baseline="middle">-2</text>
  <polyline fill="none" stroke="#8b2c2c" stroke-width="1.6" points="70,305 84,260 98,295 112,340 126,280 140,250 154,310 168,305 182,355 196,300 210,265 224,350 238,300 252,260 266,305 280,250 294,285 308,355 322,300 336,260 350,305 364,355 378,295 392,260 406,340 420,300 434,252 448,310 462,305 476,360 490,295 504,258 518,305 532,252 546,290 560,305 574,358 588,296 602,258 616,305 630,248 644,292 658,355 672,298 686,305 700,360 714,295 728,258 742,305 756,250 770,288 784,305 798,358 812,294 826,260 840,305 854,248"/>
  <text x="70"  y="400" font-family="Georgia,serif" font-size="10" fill="#5c5c5c" text-anchor="middle">0</text>
  <text x="228" y="400" font-family="Georgia,serif" font-size="10" fill="#5c5c5c" text-anchor="middle">10</text>
  <text x="386" y="400" font-family="Georgia,serif" font-size="10" fill="#5c5c5c" text-anchor="middle">20</text>
  <text x="544" y="400" font-family="Georgia,serif" font-size="10" fill="#5c5c5c" text-anchor="middle">30</text>
  <text x="702" y="400" font-family="Georgia,serif" font-size="10" fill="#5c5c5c" text-anchor="middle">40</text>
  <text x="860" y="400" font-family="Georgia,serif" font-size="10" fill="#5c5c5c" text-anchor="middle">50</text>
  <text x="465" y="416" font-family="Georgia,serif" font-size="13" fill="#5c5c5c" text-anchor="middle" font-style="italic">Time  t / T</text>
  <line x1="680" y1="38" x2="710" y2="38" stroke="#1e3a5f" stroke-width="2"/>
  <text x="716" y="42" font-family="Georgia,serif" font-size="11" fill="#5c5c5c">x(t) displacement</text>
  <line x1="680" y1="56" x2="710" y2="56" stroke="#8b2c2c" stroke-width="2"/>
  <text x="716" y="60" font-family="Georgia,serif" font-size="11" fill="#5c5c5c">dx/dt velocity</text>
  <text x="450" y="14" font-family="Georgia,serif" font-size="14" font-weight="bold" fill="#1e3a5f" text-anchor="middle">Fig. 3 - Chaotic time history: displacement and velocity</text>
</svg>
